<?xml version="1.0" standalone="no"?>
<!DOCTYPE svg PUBLIC "-//W3C//DTD SVG 20010904//EN"
 "http://www.w3.org/TR/2001/REC-SVG-20010904/DTD/svg10.dtd">
<svg version="1.0" xmlns="http://www.w3.org/2000/svg"
 width="70.000000pt" height="70.000000pt" viewBox="0 0 70.000000 70.000000"
 preserveAspectRatio="xMidYMid meet">
<metadata>
Created by potrace 1.14, written by Peter Selinger 2001-2017
</metadata>
<g transform="translate(0.000000,70.000000) scale(0.100000,-0.100000)"
fill="#000000" stroke="none">
<path d="M147 579 c-10 -6 -22 -20 -26 -32 -7 -18 2 -33 55 -89 80 -85 141
-162 149 -189 7 -20 9 -19 46 17 64 63 58 81 -65 202 -102 101 -122 112 -159
91z"/>
<path d="M350 583 c-20 -7 -50 -34 -50 -44 0 -4 31 -39 70 -76 48 -47 72 -78
76 -100 6 -30 1 -38 -65 -106 -39 -40 -71 -81 -71 -91 0 -22 62 -48 94 -40 13
3 67 50 120 103 76 78 96 104 96 127 0 22 -21 49 -103 131 -103 103 -121 113
-167 96z"/>
<path d="M529 569 c-16 -31 6 -69 41 -69 31 0 50 17 50 45 0 29 -19 45 -52 45
-18 0 -31 -7 -39 -21z"/>
</g>
</svg>
